<svg width="306" height="249" viewBox="0 0 306 249" fill="none" xmlns="http://www.w3.org/2000/svg">
<g clip-path="url(#clip0)">
<path d="M154.723 249C223.161 249 278.674 193.296 278.674 124.5C278.674 55.7039 223.161 0 154.723 0C86.2857 0 30.7725 55.7039 30.7725 124.5C30.7725 193.173 86.2857 249 154.723 249Z" fill="#B3C6FF" fill-opacity="0.7"/>
<mask id="mask0" mask-type="alpha" maskUnits="userSpaceOnUse" x="29" y="-2" width="250" height="251">
<path d="M153.615 248.382C222.422 248.382 278.182 192.432 278.182 123.265C278.182 54.0983 222.422 -1.72913 153.615 -1.72913C84.8083 -1.72913 29.0488 54.2218 29.0488 123.265C29.0488 192.308 84.8083 248.382 153.615 248.382Z" fill="#809FFF"/>
</mask>
<g mask="url(#mask0)">
<path d="M216.883 119.065L279.659 50.0223C281.505 47.7991 283.967 46.3169 286.675 45.8229L296.276 45.9464" fill="#B3C6FF" fill-opacity="0.7"/>
<path d="M216.883 119.065L279.659 50.0223C281.505 47.7991 283.967 46.3169 286.675 45.8229L296.276 45.9464" stroke="#B3C6FF" stroke-opacity="0.7" stroke-width="15.9129" stroke-miterlimit="10" stroke-linecap="round"/>
<path d="M89.609 114.495L26.5873 47.9226C24.6179 45.6994 22.1561 44.4642 19.4481 43.8467L9.84717 44.2172" fill="#B3C6FF" fill-opacity="0.7"/>
<path d="M89.609 114.495L26.5873 47.9226C24.6179 45.6994 22.1561 44.4642 19.4481 43.8467L9.84717 44.2172" stroke="#B3C6FF" stroke-opacity="0.7" stroke-width="15.9129" stroke-miterlimit="10" stroke-linecap="round"/>
<path d="M266.857 135.987L256.764 223.68C255.779 231.461 249.256 237.39 241.378 237.39H217.499L217.129 234.426C216.637 230.226 213.191 227.262 209.005 227.262H106.472C102.41 227.262 98.8405 230.226 98.3482 234.426L97.9789 237.39H74.0996C66.2219 237.39 59.6982 231.461 58.7134 223.68L48.6201 135.987H266.857Z" fill="#0E4AFF"/>
<path d="M102.533 162.789V208.365" stroke="#7597FF" stroke-width="15.9129" stroke-miterlimit="10"/>
<path d="M130.105 162.789V208.365" stroke="#7597FF" stroke-width="15.9129" stroke-miterlimit="10"/>
<path d="M157.8 162.789V208.365" stroke="#7597FF" stroke-width="15.9129" stroke-miterlimit="10"/>
<path d="M185.373 162.789V208.365" stroke="#7597FF" stroke-width="15.9129" stroke-miterlimit="10"/>
<path d="M212.944 162.789V208.365" stroke="#7597FF" stroke-width="15.9129" stroke-miterlimit="10"/>
<path d="M257.995 141.051H45.4198C41.604 141.051 38.6499 138.086 38.6499 134.257V124.994H264.642V134.257C264.642 137.963 261.688 141.051 257.995 141.051Z" fill="#809FFF"/>
<path d="M271.904 141.051H59.452C55.6363 141.051 52.6821 138.086 52.6821 134.257V124.994H278.674V134.257C278.797 137.963 275.72 141.051 271.904 141.051Z" fill="#809FFF"/>
<path d="M86.7781 138.58C93.548 138.58 98.964 133.146 98.964 126.353C98.964 119.56 93.548 114.125 86.7781 114.125C80.0082 114.125 74.5923 119.56 74.5923 126.353C74.5923 133.146 80.1313 138.58 86.7781 138.58Z" fill="#809FFF"/>
<path opacity="0.1" d="M50.9588 161.554C50.9588 161.554 59.5751 149.943 73.9765 149.449C88.501 148.955 270.427 141.051 270.427 141.051H48.6201L50.9588 161.554Z" fill="black"/>
<path d="M84.3162 126.724L9.84717 44.2184" stroke="white" stroke-width="15.9129" stroke-miterlimit="10" stroke-linecap="round"/>
<path d="M225.253 136.234C232.023 136.234 237.439 130.799 237.439 124.006C237.439 117.213 232.023 111.778 225.253 111.778C218.483 111.778 213.067 117.213 213.067 124.006C213.067 130.799 218.483 136.234 225.253 136.234Z" fill="#809FFF"/>
<path d="M223.53 130.182L296.03 45.9464" stroke="white" stroke-width="15.9129" stroke-miterlimit="10" stroke-linecap="round"/>
<path opacity="0.1" d="M100.81 162.789H97.6099V208.365H100.81V162.789Z" fill="white"/>
<path opacity="0.1" d="M128.013 162.542H124.812V208.118H128.013V162.542Z" fill="white"/>
<path opacity="0.1" d="M156.077 162.789H152.877V208.365H156.077V162.789Z" fill="white"/>
<path opacity="0.1" d="M184.019 162.789H180.818V208.365H184.019V162.789Z" fill="white"/>
<path opacity="0.1" d="M211.098 163.159H207.898V208.735H211.098V163.159Z" fill="white"/>
<path d="M54.0362 13.5863H108.565C112.996 13.5863 116.566 16.9211 117.058 21.3676L120.012 49.7753C120.504 54.8393 116.566 59.2857 111.519 59.2857H56.9904C52.5592 59.2857 48.9896 55.9509 48.4972 51.5045L45.5431 23.0967C45.0507 18.0327 48.9896 13.5863 54.0362 13.5863Z" fill="#0E4AFF"/>
<path d="M70.284 53.3571L82.5929 73.8601C83.7007 75.8362 86.7779 75.2187 87.0241 72.872L89.3628 52.4925C89.4859 51.0104 88.3781 49.7752 87.0241 49.7752L72.4996 49.6517C70.407 49.6517 69.1761 51.7514 70.284 53.3571Z" fill="#0E4AFF"/>
<path d="M93.5479 36.5595C93.5479 43.7232 87.7627 49.4047 80.7466 49.4047C73.7305 49.4047 67.9453 43.5997 67.9453 36.5595C67.9453 29.5193 73.7305 23.7142 80.7466 23.7142C87.7627 23.7142 93.5479 29.5193 93.5479 36.5595Z" stroke="white" stroke-width="5"/>
<path d="M90.7169 23.5908L70.5303 48.2932" stroke="white" stroke-width="4"/>
<path d="M94.7786 24.8259L72.7456 50.6399" stroke="#0E4AFF" stroke-width="3"/>
<path d="M155.339 97.3274C156.57 94.6101 157.554 91.5223 157.801 88.558C159.032 87.817 160.139 86.8289 161.247 85.9643C163.586 83.9881 165.925 81.6414 167.894 79.1711C169.125 77.689 170.233 76.0833 171.34 74.4777C171.833 73.7366 172.325 72.9955 172.941 72.378C174.541 70.1548 176.387 68.0551 178.48 66.3259C180.572 64.7202 182.911 63.4851 185.496 62.6205C190.665 60.8914 196.328 60.8914 201.743 61.0149L205.805 61.1384C206.175 61.1384 206.544 61.0149 206.79 60.7679C207.036 60.5208 207.036 60.1503 207.036 59.9033C207.036 59.6563 206.913 59.2857 206.79 59.0387C206.544 58.7917 206.298 58.6682 205.929 58.5447C196.081 57.9271 184.634 57.6801 176.387 64.5967C174.295 66.3259 172.694 68.4256 171.094 70.5253C170.356 71.3899 169.74 72.378 169.125 73.2426C168.263 74.4777 167.402 75.7128 166.417 76.8244C164.078 79.9122 161.247 82.8765 158.047 85.2232C157.801 83.4941 157.308 81.7649 156.447 80.0357C153.985 75.4658 148.569 72.131 143.276 72.625C140.814 72.872 138.353 73.9836 136.875 76.0833C135.521 78.0595 135.152 80.6533 135.398 83C136.26 88.4345 141.184 91.6458 146.23 91.8929C149.431 92.1399 152.508 91.2753 155.216 89.9167C155.093 90.7813 154.846 91.5223 154.6 92.2634C153.123 97.0804 150.538 101.65 147.215 105.479C144.261 108.938 140.322 111.902 135.891 113.137C134.783 113.384 133.675 113.631 132.567 113.754C132.198 113.754 131.829 113.878 131.706 114.125C131.46 114.372 131.336 114.743 131.336 114.99C131.336 115.237 131.46 115.607 131.706 115.854C131.952 116.101 132.321 116.225 132.69 116.225C143.276 115.731 151.277 106.344 155.339 97.3274ZM154.97 84.7292C155.093 85.4702 155.216 86.2113 155.216 86.9524C154.723 87.1994 154.354 87.4464 153.862 87.6935C149.554 89.7932 144.138 90.2872 140.322 87.3229C138.722 86.0878 137.737 84.1116 137.491 82.1354C137.245 80.1592 137.737 78.183 139.214 76.8244C140.937 75.3423 143.153 74.9717 145.369 75.3423C147.584 75.7128 149.923 76.9479 151.4 78.4301C153.369 80.1592 154.6 82.2589 154.97 84.7292Z" fill="white" stroke="white"/>
</g>
</g>
<defs>
<clipPath id="clip0">
<rect width="306" height="249" fill="white"/>
</clipPath>
</defs>
</svg>
